<?xml version="1.0" standalone="no"?>
<!DOCTYPE svg PUBLIC "-//W3C//DTD SVG 20010904//EN"
 "http://www.w3.org/TR/2001/REC-SVG-20010904/DTD/svg10.dtd">
<svg version="1.0" xmlns="http://www.w3.org/2000/svg"
 width="512.000000pt" height="512.000000pt" viewBox="0 0 512.000000 512.000000"
 preserveAspectRatio="xMidYMid meet">
<metadata>
Created by potrace 1.11, written by Peter Selinger 2001-2013
</metadata>
<g transform="translate(0.000000,512.000000) scale(0.100000,-0.100000)"
fill="#000000" stroke="none">
<path d="M2700 4973 c0 -5 -7 -47 -15 -95 -7 -48 -19 -134 -25 -190 -6 -57
-17 -130 -25 -163 -8 -33 -16 -75 -17 -92 -2 -24 -7 -33 -20 -33 -15 0 -18 -8
-18 -44 0 -25 -5 -46 -12 -48 -6 -2 -13 -31 -16 -65 -4 -51 -8 -62 -24 -66
-18 -5 -19 -13 -16 -72 l3 -67 -27 6 -28 6 0 -63 c1 -34 5 -81 9 -104 l8 -43
-35 0 -35 0 6 -65 c4 -36 11 -74 17 -85 10 -18 8 -20 -20 -20 -26 0 -30 -3
-30 -29 0 -16 7 -47 15 -70 l14 -41 -26 0 c-25 0 -26 -1 -20 -49 3 -28 13 -64
22 -82 l17 -32 -31 6 c-30 6 -31 5 -31 -27 0 -19 11 -71 24 -116 l24 -82 -34
4 c-43 5 -43 -2 -5 -115 l30 -87 -25 0 c-32 0 -31 -18 4 -118 l28 -80 -29 -6
c-26 -5 -28 -9 -22 -35 3 -15 19 -62 34 -104 16 -42 26 -79 23 -82 -3 -3 -14
-5 -24 -5 -11 0 -18 -7 -18 -17 0 -27 25 -113 48 -165 21 -47 21 -48 2 -48
-29 0 -26 -32 15 -141 39 -104 38 -102 27 -95 -4 2 -13 1 -20 -3 -13 -8 7 -79
48 -176 13 -30 17 -52 11 -59 -11 -13 1 -86 34 -206 13 -47 26 -110 29 -140
l5 -55 -28 60 c-35 73 -69 173 -112 323 -27 95 -35 113 -49 109 -14 -4 -19 4
-24 37 -7 44 -46 209 -51 214 -2 2 -14 -3 -27 -12 l-24 -16 -13 63 c-11 53
-58 205 -66 215 -2 2 -14 -4 -28 -12 l-24 -17 -7 51 c-8 63 -43 177 -57 185
-5 4 -16 2 -23 -4 -10 -8 -16 6 -29 67 -21 96 -30 111 -55 96 -17 -11 -19 -6
-31 61 -6 40 -18 81 -26 91 -13 18 -14 18 -32 1 -11 -9 -22 -17 -25 -17 -3 0
-11 26 -18 57 -7 31 -21 76 -31 100 -18 43 -19 44 -43 28 -27 -18 -28 -17 -42
57 -8 51 -28 66 -54 43 -19 -18 -20 -17 -20 7 0 30 -28 129 -41 142 -5 6 -16
3 -27 -7 -26 -24 -29 -22 -36 23 -9 55 -52 150 -68 150 -8 0 -19 -5 -25 -11
-8 -8 -15 3 -27 39 -20 58 -34 73 -66 70 -19 -3 -26 5 -42 52 -10 30 -25 64
-33 74 -14 19 -16 19 -28 2 -11 -15 -16 -10 -41 45 -17 37 -38 67 -54 76 -15
9 -40 38 -57 64 -56 92 -236 347 -261 370 -32 30 -30 13 7 -69 73 -161 134
-332 118 -332 -15 0 -10 -28 15 -90 20 -48 21 -60 10 -64 -8 -3 -14 -12 -14
-21 0 -22 34 -85 60 -112 20 -22 20 -23 1 -23 -44 0 -35 -33 26 -101 35 -38
35 -40 15 -46 -33 -8 -27 -32 23 -95 25 -32 45 -59 45 -62 0 -2 -9 -6 -20 -9
-33 -9 -23 -35 36 -97 51 -54 54 -59 32 -62 -45 -6 -33 -37 47 -118 l77 -77
-31 -13 c-17 -7 -31 -18 -31 -26 0 -7 31 -37 69 -67 63 -49 67 -55 50 -65 -36
-23 -19 -48 83 -125 42 -31 45 -36 28 -42 -43 -14 -11 -62 85 -132 l30 -21
-28 -7 c-15 -4 -27 -11 -27 -15 0 -16 54 -73 109 -113 36 -27 50 -42 41 -45
-45 -15 -28 -41 71 -111 55 -39 64 -49 55 -63 -13 -21 28 -68 117 -133 33 -25
53 -45 45 -47 -20 -7 25 -65 94 -122 32 -26 71 -64 86 -85 14 -20 83 -92 152
-161 79 -79 140 -149 163 -189 l38 -63 -48 40 c-53 44 -144 138 -214 222 -37
44 -49 52 -60 43 -12 -9 -26 4 -78 73 -65 88 -85 104 -103 86 -7 -7 -27 12
-66 64 -56 75 -80 90 -89 55 -4 -17 -11 -13 -40 27 -49 65 -95 112 -109 112
-6 0 -15 -7 -18 -16 -5 -13 -21 -1 -72 52 -65 68 -65 69 -82 48 -17 -21 -17
-20 -85 53 -38 40 -73 73 -78 73 -5 0 -12 -12 -15 -26 -6 -25 -9 -24 -88 55
-45 45 -85 81 -89 81 -5 0 -13 -14 -19 -30 l-10 -31 -63 61 c-62 59 -95 75
-95 45 0 -22 -7 -19 -63 30 -54 47 -77 56 -77 30 0 -21 -1 -20 -71 25 -68 44
-79 47 -79 26 0 -11 -14 -8 -59 15 -33 16 -68 29 -78 29 -10 0 -52 14 -93 31
-269 111 -362 121 -204 22 117 -74 196 -135 213 -166 9 -16 36 -42 61 -58 25
-17 47 -40 50 -52 3 -13 33 -40 69 -63 55 -37 61 -43 45 -52 -18 -10 -18 -12
6 -37 14 -15 46 -38 72 -51 32 -16 46 -29 42 -38 -10 -26 14 -51 75 -81 36
-17 56 -32 50 -36 -24 -15 3 -41 83 -79 45 -22 89 -40 97 -40 13 -1 13 -3 -2
-15 -43 -32 16 -80 113 -92 40 -5 48 -8 39 -19 -28 -34 22 -77 116 -99 40 -9
51 -16 55 -36 7 -28 37 -44 124 -68 50 -13 62 -20 64 -39 4 -28 24 -36 122
-51 111 -17 118 -20 137 -40 10 -11 59 -31 108 -46 50 -15 149 -47 220 -70
l130 -44 -132 0 c-84 -1 -134 -5 -139 -12 -4 -7 -20 -8 -41 -4 -56 10 -145 -4
-150 -25 -4 -13 -20 -19 -69 -23 -76 -7 -108 -22 -101 -46 3 -14 -5 -20 -37
-29 -56 -15 -107 -49 -104 -67 2 -9 -13 -25 -37 -38 -22 -12 -46 -35 -53 -50
-7 -15 -76 -78 -153 -139 -124 -99 -161 -138 -128 -138 5 0 58 18 116 40 59
22 134 45 167 51 34 6 93 21 131 33 70 22 71 22 86 3 14 -19 16 -19 67 7 40
20 60 25 90 20 30 -5 50 0 90 20 32 16 68 26 96 26 30 0 68 11 116 34 60 29
75 33 91 23 21 -13 60 4 246 111 52 31 97 51 104 46 15 -9 5 -282 -16 -439 -8
-60 -18 -145 -22 -187 -6 -74 -5 -78 15 -78 11 0 23 8 26 18 19 62 50 331 66
567 10 161 15 170 90 161 25 -3 128 -33 230 -66 195 -65 330 -99 392 -100 21
0 65 -9 99 -21 51 -18 65 -19 90 -9 23 10 42 10 87 0 75 -16 106 -11 110 16 3
20 10 22 90 26 61 3 95 9 112 21 14 9 41 17 60 17 20 0 45 7 56 15 15 11 57
14 207 15 116 0 187 4 187 10 0 17 -72 58 -160 90 -47 18 -105 40 -130 50 -25
11 -70 24 -100 31 -30 6 -58 16 -62 22 -3 6 -31 12 -62 15 -39 3 -56 9 -56 18
0 10 -16 14 -60 14 -55 0 -60 2 -60 21 0 20 -4 21 -45 16 -25 -4 -56 -9 -70
-13 -19 -5 -25 -3 -23 7 3 16 -43 18 -104 5 -32 -7 -38 -5 -38 8 0 9 -6 16
-14 16 -14 0 -113 -30 -148 -45 -13 -5 -18 -2 -18 9 0 22 -52 21 -129 -3 -40
-12 -61 -15 -64 -8 -4 12 -73 0 -190 -35 -83 -24 -97 -19 -25 9 236 91 420
173 453 203 11 10 54 32 95 49 41 18 80 38 86 46 15 19 66 40 134 54 30 7 66
20 80 31 22 17 23 22 13 39 -15 23 -7 29 62 51 75 24 135 59 135 79 0 11 -6
21 -12 24 -14 5 -9 8 58 26 80 21 138 80 103 102 -16 10 -19 8 59 44 72 33 97
56 89 84 -4 16 5 23 42 39 60 27 98 66 82 86 -10 11 0 20 51 48 62 34 83 63
57 79 -9 5 5 15 42 32 30 13 61 32 69 42 13 16 13 19 -2 28 -14 10 -10 16 33
44 27 19 63 53 80 76 29 41 131 137 203 192 35 27 48 55 25 55 -6 0 -46 -15
-88 -33 -174 -77 -199 -87 -218 -87 -11 0 -37 -11 -57 -25 -20 -13 -36 -20
-36 -15 0 6 -7 10 -15 10 -22 0 -108 -45 -124 -64 -18 -22 -31 -20 -31 4 0 11
-5 20 -11 20 -14 0 -129 -81 -148 -104 -13 -15 -15 -15 -28 4 -8 11 -20 20
-27 20 -7 0 -47 -33 -89 -73 l-76 -73 -12 28 c-6 15 -17 28 -23 28 -12 0 -75
-69 -108 -119 l-17 -25 -12 27 c-7 15 -16 27 -20 27 -8 0 -99 -99 -99 -109 0
-3 -4 -13 -10 -21 -7 -12 -12 -12 -29 4 -19 17 -20 16 -58 -36 -22 -29 -47
-65 -57 -80 -15 -23 -21 -25 -36 -15 -16 9 -23 7 -44 -12 -13 -12 -35 -42 -47
-66 -19 -35 -28 -43 -44 -39 -15 3 -29 -8 -60 -52 -22 -32 -45 -68 -51 -82 -7
-16 -14 -21 -18 -13 -4 6 -11 11 -16 11 -10 0 -70 -79 -120 -159 -19 -31 -42
-56 -49 -56 -8 0 -42 -36 -75 -79 -54 -70 -234 -265 -209 -226 29 46 145 205
193 265 31 39 64 83 74 100 11 16 52 61 93 100 66 65 91 105 62 105 -6 0 23
36 65 81 70 74 94 119 64 119 -6 0 21 33 60 74 68 70 85 100 61 108 -6 2 22
36 61 77 61 62 71 77 65 98 -5 21 1 31 35 60 63 55 86 113 43 113 -9 0 3 17
30 44 49 47 67 84 46 96 -9 6 0 22 34 60 52 58 58 82 25 98 -13 6 -18 11 -12
11 14 1 124 133 124 148 0 6 -14 13 -32 17 l-32 6 46 48 c51 53 78 91 78 108
0 7 -13 15 -30 19 -16 4 -30 9 -30 11 0 3 11 20 24 37 30 39 66 121 66 149 0
11 -8 22 -20 25 -11 3 -20 7 -20 8 0 2 13 32 30 67 36 75 39 118 10 118 -18 0
-18 2 5 53 27 56 31 83 15 89 -7 2 -5 17 5 42 10 24 14 52 11 70 -7 34 36 207
84 336 48 131 37 161 -24 63 -20 -32 -36 -61 -36 -66 0 -4 -34 -64 -75 -132
-41 -68 -75 -128 -75 -133 0 -6 -10 -12 -22 -14 -16 -2 -27 -15 -38 -43 -11
-29 -20 -40 -32 -37 -13 2 -21 -11 -35 -57 -15 -48 -22 -58 -33 -51 -8 6 -18
10 -22 10 -6 0 -21 -41 -33 -93 -5 -25 -8 -27 -21 -16 -13 10 -17 10 -25 -2
-22 -30 -39 -80 -39 -109 0 -30 -1 -31 -22 -16 -12 9 -26 16 -30 16 -8 0 -35
-87 -43 -143 -5 -32 -9 -36 -20 -27 -28 23 -43 3 -56 -72 -7 -40 -14 -75 -15
-77 -2 -2 -11 2 -19 9 -9 8 -19 9 -24 4 -11 -12 -31 -96 -31 -130 0 -22 -2
-25 -15 -14 -35 29 -57 -14 -73 -136 l-7 -56 -28 22 c-15 12 -30 20 -32 18 -3
-2 -10 -40 -16 -84 -18 -130 -15 -124 -48 -118 l-28 6 -12 -76 c-6 -42 -11
-86 -11 -98 0 -15 -5 -19 -20 -15 -31 8 -42 -17 -48 -113 -2 -50 -8 -90 -11
-90 -4 0 -12 5 -19 12 -6 6 -15 8 -19 4 -9 -8 -21 -104 -22 -173 -1 -53 -7
-63 -28 -42 -19 19 -33 0 -34 -44 -1 -23 -3 -34 -6 -24 -2 9 -13 17 -23 17
-16 0 -15 6 12 71 31 75 34 115 6 113 -13 -1 -10 11 18 69 37 77 42 113 20
131 -12 9 -10 24 15 100 17 48 28 94 25 102 -3 8 -16 14 -29 14 l-24 0 30 63
c16 34 32 81 35 104 4 38 3 42 -21 45 l-25 3 23 55 c12 30 26 75 30 99 l7 43
-32 -7 c-26 -6 -32 -4 -27 6 45 109 56 141 59 175 3 36 1 39 -23 42 l-27 3 26
72 c30 83 26 112 -14 104 -22 -4 -25 -2 -20 17 13 47 27 156 21 165 -4 7 -15
7 -31 1 -35 -14 -35 -14 -18 26 8 19 18 64 21 98 l6 63 -31 -5 -30 -4 9 38 c5
22 9 65 9 98 0 51 -2 58 -18 54 -15 -4 -17 2 -14 67 4 67 3 73 -18 78 -21 5
-22 9 -15 65 5 48 4 62 -8 69 -9 4 -17 29 -20 58 -3 28 -10 73 -16 100 -5 28
-13 129 -16 225 -7 190 -10 220 -25 220 -6 0 -10 -3 -10 -7z m160 -2958 c0
-33 -4 -45 -15 -45 -7 0 -19 -8 -24 -17 -6 -10 -11 -15 -11 -11 0 9 42 118 46
118 2 0 4 -20 4 -45z m-84 -301 c-8 -21 -15 -31 -15 -22 -1 18 20 70 26 65 2
-2 -3 -21 -11 -43z"/>
</g>
</svg>
